<?xml version="1.0" encoding="UTF-8"?>
<svg id="Layer_1" data-name="Layer 1" xmlns="http://www.w3.org/2000/svg" viewBox="0 0 100 50">
  <path d="M53.6,4.1c8.1,0,16.2,0,24.3,0,2.5,0,3.3.2,3.5,1.8s.7,1.2.7,2.1c0,.5-.5,1-.5,1.5,0,.8,0,1.7,0,2.5,0,3.8-1.4,5.3-5.3,5.4-3.7,0-7.4,0-11.1,0s-2.4,0-3.5,0c-1.2,0-1.4.5-1.3,1.5,0,.7,0,1.4,0,2,0,4.6,0,4.5-4.3,4.7-2.4.1-4,.4-6.3.2s-1.6,0-2-.2c-1.1-.3-2.6-1-3.4-.6-1.1.7-2.1,2.1-2.5,3.4-.7,2.6-3.3,4.5-2.8,7.5,0,.3-.5.8-.8,1.2-1.2,1.5-2.1,3.1-2.2,5.2,0,2-1.9,3.5-3.9,3.6-1.5,0-3,0-4.5,0-3.1.2-5.5-.8-8.1-2.7-1.5-1.2-1.8-1.6-1.3-3.3,1.3-4,3.4-7.5,5.7-10.9,2.2-3.2,3.8-6.6,4-10.5.2-2.7.1-2.9-2.3-4-1.2-.5-1.8-.9-1.7-2.3.1-1.5,0-3.1,0-4.6,0-1.8,1.1-3.3,2.9-3.5.4,0,.3-1.1.6-1.1.6,0,1.8,1.1,2.4,1.1h23.8ZM53.5,17.4c-3.9,0-5.1.4-2.4,4.6s.8,1.5,1.9,1.5c1,0,2,0,3,0,.5,0,1.1-.5,1.3-.9,1.7-3.2,1.1-5.1-2.8-5.1-.3,0-.7,0-1,0ZM46.6,19.5c-.4.4-.4.4-.7.7-.9.8-1.1,1.5-.1,2.5,1,1.1,3.2,1.2,4.3.9,0,0-.8-.7-1.5-1.4s-1.4-1.5-2-2.6Z" fill="#ccc" stroke-width="0"/>
  <rect width="100" height="50" fill="none" stroke-width="0"/>
</svg>